<svg width="124" height="76" viewBox="0 0 124 76" fill="none" xmlns="http://www.w3.org/2000/svg">
<g clip-path="url(#clip0_626_30)">
<path opacity="0.838" fill-rule="evenodd" clip-rule="evenodd" d="M26.0001 0.299491C31.3501 -0.815869 34.1835 1.18413 34.5001 6.29949C32.1692 10.7326 29.0026 11.3993 25.0001 8.29949C23.5249 5.35674 23.8582 2.69007 26.0001 0.299491Z" fill="white"/>
<path opacity="0.928" fill-rule="evenodd" clip-rule="evenodd" d="M4 6.29932C7 6.29932 10 6.29932 13 6.29932C12.8337 13.6402 13.0003 20.9735 13.5 28.2993C30.8034 20.1172 42.4701 25.1172 48.5 43.2993C51.0627 62.0526 43.0627 72.7192 24.5 75.2993C12.2944 74.867 4.29444 68.867 0.500003 57.2993C-0.166668 41.2993 -0.166668 25.2993 0.500003 9.29932C1.64508 8.16292 2.81174 7.16294 4 6.29932ZM21 36.2993C32.5804 36.7229 37.4137 42.7229 35.5 54.2993C31.6257 63.035 25.459 65.2017 17 60.7993C12.0397 55.7528 10.873 49.9194 13.5 43.2993C15.2668 40.0273 17.7668 37.694 21 36.2993Z" fill="white"/>
<path opacity="0.922" fill-rule="evenodd" clip-rule="evenodd" d="M63 6.29932C65.6667 6.29932 68.3333 6.29932 71 6.29932C71.1666 28.3018 71 50.3018 70.5 72.2993C69.6667 73.1326 68.8333 73.966 68 74.7993C64.6832 75.2976 61.3499 75.4643 58 75.2993C57.8334 53.6301 58 31.9634 58.5 10.2993C59.7499 8.60582 61.2499 7.27249 63 6.29932Z" fill="white"/>
<path opacity="0.906" fill-rule="evenodd" clip-rule="evenodd" d="M79.9997 24.2995C84.0836 23.8426 87.9169 24.5093 91.4997 26.2995C92.787 36.8683 93.4537 47.535 93.4997 58.2995C98.0577 64.4066 103.058 64.74 108.5 59.2995C108.546 48.535 109.213 37.8683 110.5 27.2995C111.333 26.4662 112.167 25.6328 113 24.7995C116.317 24.3012 119.65 24.1345 123 24.2995C123.418 36.6944 122.918 49.0277 121.5 61.2995C114.738 75.0886 104.238 78.922 89.9997 72.7995C86.3652 70.3745 83.5319 67.2078 81.4997 63.2995C80.0569 50.3737 79.5569 37.3737 79.9997 24.2995Z" fill="white"/>
</g>
<defs>
<clipPath id="clip0_626_30">
<rect width="123.142" height="75.6233" fill="white"/>
</clipPath>
</defs>
</svg>
