<svg width="74" height="58" viewBox="0 0 74 58" fill="none" xmlns="http://www.w3.org/2000/svg">
<g clip-path="url(#clip0_402_179)">
<path d="M0 50.1721L0 7.71878C0 3.47345 3.47345 0 7.71878 0L65.6096 0C69.855 0 73.3284 3.47345 73.3284 7.71878V50.1721C73.3284 54.4174 69.855 57.8909 65.6096 57.8909H7.71878C3.47345 57.8909 0 54.4174 0 50.1721Z" fill="#FF9800"/>
<path d="M73.3284 23.1563V19.297H50.1721C48.0494 19.297 46.3127 17.5602 46.3127 15.4376C46.3127 13.3149 48.0494 11.5782 50.1721 11.5782H52.1018V7.71878H50.1721C45.9267 7.71878 42.4533 11.1922 42.4533 15.4376C42.4533 19.6829 45.9267 23.1563 50.1721 23.1563H55.9612V34.7345H50.1721C44.7689 34.7345 40.5236 38.9798 40.5236 44.383C40.5236 49.7861 44.7689 54.0315 50.1721 54.0315H54.0315V50.1721H50.1721C46.8916 50.1721 44.383 47.6635 44.383 44.383C44.383 41.1025 46.8916 38.5939 50.1721 38.5939H73.3284V34.7345H59.8205V23.1563H73.3284ZM23.1563 34.7345H17.3673V23.1563H23.1563C27.4017 23.1563 30.8751 19.6829 30.8751 15.4376C30.8751 11.1922 27.4017 7.71878 23.1563 7.71878H17.3673V11.5782H23.1563C25.279 11.5782 27.0157 13.3149 27.0157 15.4376C27.0157 17.5602 25.279 19.297 23.1563 19.297H0L0 23.1563H13.5079V34.7345H0L0 38.5939H23.1563C26.4368 38.5939 28.9454 41.1025 28.9454 44.383C28.9454 47.6635 26.4368 50.1721 23.1563 50.1721H19.297V54.0315H23.1563C28.5595 54.0315 32.8048 49.7861 32.8048 44.383C32.8048 38.9798 28.5595 34.7345 23.1563 34.7345Z" fill="#FFD54F"/>
</g>
<defs>
<clipPath id="clip0_402_179">
<rect width="73.3284" height="57.8909" fill="white"/>
</clipPath>
</defs>
</svg>
